. 
 
http://www.torrenting.com          :     Once & For all ;)


               www . Torrenting . Com 

(((((((((((((= Enjoy No RAR releases =))))))))))))))))))))


...................................NFO:....................................

.[img]http://i.imgbox.com/aarO0xVr.jpg[/img]


[color=green][size=3]General Info[/size][/color]
ENCODER     : Kobe
Source Video: BD Disk
Source Audio: BD Disk  
Channel     : 6 channels 
IMDB        : http://www.imdb.com/title/tt1229238/
subs        : Yes- Hardcoded where needed.  

Video
ID                                       : 0
Format                                   : MPEG-4 Visual
Format profile                           : Advanced Simple@L5
Format settings, BVOP                    : 2
Format settings, QPel                    : No
Format settings, GMC                     : No warppoints
Format settings, Matrix                  : Default (H.263)
Muxing mode                              : Packed bitstream
Codec ID                                 : XVID
Codec ID/Hint                            : XviD
Duration                                 : 2h 12mn
Bit rate                                 : 2 245 Kbps
Width                                    : 720 pixels
Height                                   : 304 pixels
Display aspect ratio                     : 2.35:1
Frame rate                               : 23.976 fps
Color space                              : YUV
Chroma subsampling                       : 4:2:0
Bit depth                                : 8 bits
Scan type                                : Progressive
Compression mode                         : Lossy
Bits/(Pixel*Frame)                       : 0.428
Stream size                              : 2.08 GiB (78%)
Writing library                          : XviD 64



Audio
ID                                       : 1
Format                                   : AC-3
Format/Info                              : Audio Coding 3
Mode extension                           : CM (complete main)
Codec ID                                 : 2000
Duration                                 : 2h 12mn
Bit rate mode                            : Constant
Bit rate                                 : 640 Kbps
Channel(s)                               : 6 channels
Channel positions                        : Front: L C R, Side: L R, LFE
Sampling rate                            : 48.0 KHz
Bit depth                                : 16 bits
Compression mode                         : Lossy
Stream size                              : 609 MiB (22%)
Alignment                                : Split accross interleaves
Interleave, duration                     : 42 ms (1.00 video frame)
Interleave, preload duration             : 500 ms







NOTE: 
BD Disk was nice.Did a straight up encode from the Blu ray 
opted for bitrate over 2100 because it kept the picture nice
and crisp. Enjoy.






 

[color=Green][size=3]Greetz[/size][/color]
Unevano,Mr.hive :rock: R3dRuM,rfcgazza,Killerhz,cooperman,ANALOG,26K,Inspiral,HOPE,Toffee :rock:, KoDeKinG :P 

[img]http://i.imgbox.com/aamViGic.png[/img]
[img]http://i.imgbox.com/aamEIA84.png[/img]
[img]http://i.imgbox.com/aaj61UVf.png[/img]




[img]http://i.imgbox.com/aacw6ohs.jpg[/img]